<?xml version="1.0" encoding="UTF-8" standalone="no"?>
<svg
   xmlns:dc="http://purl.org/dc/elements/1.1/"
   xmlns:cc="http://creativecommons.org/ns#"
   xmlns:rdf="http://www.w3.org/1999/02/22-rdf-syntax-ns#"
   xmlns:svg="http://www.w3.org/2000/svg"
   xmlns="http://www.w3.org/2000/svg"
   xmlns:sodipodi="http://sodipodi.sourceforge.net/DTD/sodipodi-0.dtd"
   xmlns:inkscape="http://www.inkscape.org/namespaces/inkscape"
   inkscape:version="1.0 (4035a4fb49, 2020-05-01)"
   sodipodi:docname="Seattle_Commune.svg"
   id="seattle_flag_svg"
   viewBox="0 0 565.68542 400"
   height="400"
   width="565.68542"
   version="1.1">
  <metadata
     id="metadata1040">
    <rdf:RDF>
      <cc:Work
         rdf:about="">
        <dc:format>image/svg+xml</dc:format>
        <dc:type
           rdf:resource="http://purl.org/dc/dcmitype/StillImage" />
        <dc:title></dc:title>
      </cc:Work>
    </rdf:RDF>
  </metadata>
  <sodipodi:namedview
     inkscape:current-layer="seattle_flag_svg"
     inkscape:window-maximized="1"
     inkscape:window-y="28"
     inkscape:window-x="0"
     inkscape:cy="58.15848"
     inkscape:cx="231.07913"
     inkscape:zoom="1"
     fit-margin-bottom="0"
     fit-margin-right="0"
     fit-margin-left="0"
     fit-margin-top="0"
     inkscape:object-paths="false"
     inkscape:snap-page="true"
     showgrid="false"
     id="namedview1038"
     inkscape:window-height="1052"
     inkscape:window-width="1920"
     inkscape:pageshadow="2"
     inkscape:pageopacity="0"
     guidetolerance="10"
     gridtolerance="10"
     objecttolerance="10"
     borderopacity="1"
     bordercolor="#666666"
     pagecolor="#ffffff" />
  <desc
     id="desc3">Flag of Seattle, Washington, United States of America</desc>
  <defs
     id="defs5">
    <clipPath
       id="head">
      <circle
         id="circle8"
         r="53.5"
         cy="281.5"
         cx="337.5" />
    </clipPath>
    <clipPath
       id="cliparound">
      <path
         id="path11"
         d="m 337.5,223.5 h 100 v -60 h -200 v 100 l 55,55 z m 0,116 h -100 v 60 h 200 v -100 l -55,-55 z" />
    </clipPath>
    <clipPath
       id="big_cir">
      <path
         id="path14"
         d="m 170,378 45,15 85,-265 20,-40 H 535 V 473 H 170 Z" />
    </clipPath>
    <path
       id="textpath1"
       d="m 239.5,281.5 a 98,98 0 0 1 196,0" />
    <path
       id="textpath2"
       d="m 239.5,281.5 a 98,98 0 0 0 196,0" />
    <path
       id="a"
       d="m 1.421875,-4.9003906 h -6.0810547 l -0.7236328,1.6757812 c -0.2369829,0.5585964 -0.3554724,1.019859 -0.3554688,1.3837891 -3.6e-6,0.4824232 0.1946577,0.8378916 0.5839844,1.06640624 0.2285112,0.1354173 0.7913361,0.2369797 1.6884766,0.3046875 V 0 h -5.725586 v -0.46972656 c 0.6178378,-0.0930984 1.1256498,-0.34912028 1.5234375,-0.76806644 0.3977844,-0.4189436 0.8886693,-1.2843399 1.4726563,-2.5961914 L -0.03808594,-17.570313 H 0.203125 l 6.2080078,14.117188 c 0.5924315,1.3372417 1.0790847,2.1793633 1.459961,2.52636719 0.2877428,0.26237045 0.6939924,0.41471405 1.21875,0.45703125 V 0 H 0.76171875 V -0.46972656 H 1.1044922 c 0.6686086,4.7e-7 1.1383347,-0.0930984 1.4091797,-0.27929688 0.1861858,-0.13541578 0.2792847,-0.33007706 0.2792969,-0.58398436 -1.22e-5,-0.1523423 -0.025403,-0.3089176 -0.076172,-0.4697266 -0.016939,-0.07617 -0.1438922,-0.3935525 -0.3808594,-0.9521484 z m -0.43164062,-0.9394532 -2.56445318,-5.9287112 -2.640625,5.9287112 z" />
    <path
       id="s"
       d="m 4.9765625,-17.608398 0.1396484,5.738281 H 4.5957031 c -0.2454543,-1.438789 -0.848481,-2.596177 -1.809082,-3.472168 -0.960621,-0.875961 -1.99951975,-1.313948 -3.11669923,-1.313965 -0.86328727,1.7e-5 -1.54671757,0.230648 -2.05029297,0.691895 -0.5035851,0.461278 -0.7553752,0.992365 -0.7553711,1.593261 -4.1e-6,0.380874 0.088863,0.719415 0.2666016,1.015625 0.2454381,0.3978 0.6389924,0.791354 1.180664,1.180664 0.3977806,0.279309 1.3160739,0.774426 2.7548829,1.485352 2.0143125,0.9902439 3.3727096,1.9254644 4.0751953,2.8056639 0.6939973,0.8802154 1.0410022,1.8873758 1.0410156,3.0214844 -1.34e-5,1.4388055 -0.5607225,2.6765973 -1.6821289,3.7133789 C 3.3790584,-0.11214181 1.9550689,0.40624959 0.22851563,0.40625 -0.31315796,0.40624959 -0.82520172,0.35123663 -1.3076172,0.24121094 -1.7900445,0.13118476 -2.3951871,-0.0761718 -3.1230469,-0.38085938 c -0.4062537,-0.16927028 -0.7405632,-0.25390561 -1.0029297,-0.25390625 -0.2200549,6.4e-7 -0.4528021,0.084636 -0.6982422,0.25390625 -0.2454448,0.16927105 -0.4443379,0.42740881 -0.5966796,0.77441407 H -5.890625 V -6.1064453 h 0.4697266 c 0.3723936,1.8281293 1.089678,3.2224964 2.1518554,4.1831055 1.0621695,0.9606129 2.2068623,1.44091841 3.43408206,1.44091792 0.94790834,4.9e-7 1.70327864,-0.25813728 2.26611324,-0.77441402 C 2.9939676,-1.7731102 3.2753801,-2.3740211 3.2753906,-3.0595703 3.2753801,-3.4658168 3.1674701,-3.8593711 2.9516602,-4.2402344 2.7358299,-4.6210891 2.407868,-4.9829052 1.9677734,-5.3256836 1.5276605,-5.6684514 0.74901545,-6.1149027 -0.36816406,-6.6650391 -1.9339246,-7.4352139 -3.0595745,-8.0911377 -3.7451172,-8.6328125 -4.4306669,-9.17447 -4.9575218,-9.7796126 -5.3256836,-10.448242 c -0.3681656,-0.668609 -0.5522474,-1.404936 -0.5522461,-2.208985 -1.3e-6,-1.371079 0.5035789,-2.539047 1.5107422,-3.503906 1.0071576,-0.964826 2.2766876,-1.447248 3.80859375,-1.447265 0.5585865136719,1.7e-5 1.10025264,0.06772 1.62500005,0.203125 0.3977777,0.101579 0.882315,0.289893 1.4536132,0.564941 0.5712788,0.275082 0.9711807,0.412614 1.1997071,0.412598 0.2200409,1.6e-5 0.3935433,-0.06769 0.5205078,-0.203125 0.1269415,-0.1354 0.245431,-0.461246 0.3554687,-0.977539 z" />
    <path
       id="e"
       d="m -1.5996094,-16.224609 v 7.0078121 h 0.3427735 c 1.09178832,9.2e-6 1.88312867,-0.3427639 2.3740234,-1.0283201 0.4908751,-0.685536 0.8040259,-1.696928 0.9394531,-3.03418 h 0.4824219 v 9.013672 H 2.0566406 C 1.9550675,-5.2473906 1.7413633,-6.0514262 1.4155273,-6.6777344 1.0896712,-7.3040292 0.71092811,-7.7250899 0.27929688,-7.940918 -0.15235228,-8.1567301 -0.77865374,-8.2646402 -1.5996094,-8.2646484 v 4.8496093 c -7.1e-6,0.9479192 0.040195,1.5276712 0.1206055,1.7392578 0.080396,0.2115901 0.2306241,0.3850925 0.4506836,0.5205079 0.2200442,0.1354176 0.57551259,0.20312591 1.06640624,0.20312496 H 1.0664063 c 1.6080615,9.5e-7 2.8966344,-0.37239446 3.8657226,-1.11718746 0.9690609,-0.7447889 1.6651865,-1.8789023 2.0883789,-3.4023438 H 7.4902344 L 6.7158203,0 H -8.1630859 v -0.46972656 h 0.571289 c 0.4993474,4.7e-7 0.9013652,-0.0888666 1.2060547,-0.26660157 0.2200496,-0.11848872 0.3893202,-0.32161357 0.5078125,-0.60937497 0.093096,-0.2031235 0.1396455,-0.7363261 0.1396484,-1.5996094 V -14.269531 c -2.9e-6,-0.778631 -0.021162,-1.256821 -0.063477,-1.434571 -0.084638,-0.296208 -0.2412136,-0.524723 -0.4697266,-0.685546 -0.3216166,-0.236963 -0.7617204,-0.355452 -1.3203125,-0.355469 h -0.571289 v -0.469727 H 6.2460933 v 5.090821 H 5.7636714 C 5.518215,-13.368151 5.173326,-14.261053 4.7290039,-14.802734 4.284655,-15.344386 3.6562377,-15.742172 2.84375,-15.996094 2.3697806,-16.148421 1.4811096,-16.224593 0.17773438,-16.224609 Z" />
    <path
       id="t"
       d="m 7.71875,-17.214844 v 4.65918 H 7.2617188 C 6.9908697,-13.63052 6.6904143,-14.402818 6.3603516,-14.872559 6.0302587,-15.34227 5.5774597,-15.716781 5.0019531,-15.996094 4.6803252,-16.148421 4.1175002,-16.224593 3.3134766,-16.224609 H 2.03125 v 13.2792965 c -1.07e-5,0.8802104 0.048655,1.4303401 0.1459961,1.6503906 0.09732,0.2200532 0.2877493,0.41259856 0.5712891,0.57763674 0.2835169,0.16503962 0.6707235,0.24755907 1.1616211,0.2475586 h 0.571289 V 0 h -9.0136719 v -0.46972656 h 0.5712891 c 0.4993437,4.7e-7 0.9013616,-0.0888666 1.2060547,-0.26660157 0.2200459,-0.11848872 0.3935484,-0.32161357 0.5205078,-0.60937497 0.093092,-0.2031235 0.1396418,-0.7363261 0.1396484,-1.5996094 V -16.224609 h -1.2441406 c -1.1595094,1.6e-5 -2.0016309,0.245458 -2.5263672,0.736328 -0.7363302,0.685561 -1.2018245,1.6631 -1.3964844,2.932617 h -0.4824218 v -4.65918 z" />
    <path
       id="l"
       d="M 7.7314453,-6.0429688 7.0839844,0 H -8.2011719 v -0.46972656 h 0.5712891 c 0.4993474,4.7e-7 0.9013652,-0.0888666 1.2060547,-0.26660157 0.2200496,-0.11848872 0.3893202,-0.32161357 0.5078125,-0.60937497 0.093096,-0.2031235 0.1396455,-0.7363261 0.1396484,-1.5996094 V -14.269531 c -2.9e-6,-0.880193 -0.046552,-1.430323 -0.1396484,-1.650391 -0.093102,-0.220036 -0.2814153,-0.412581 -0.5649414,-0.577637 -0.2835306,-0.165022 -0.6665055,-0.247541 -1.1489258,-0.247558 h -0.5712891 v -0.469727 h 9.17871096 v 0.469727 H 0.22851563 c -0.49935738,1.7e-5 -0.9013752,0.08888 -1.20605469,0.266601 -0.22005954,0.118506 -0.39356204,0.321631 -0.52050784,0.609375 -0.093106,0.203141 -0.1396555,0.736344 -0.1396484,1.59961 v 10.9687497 c -7.1e-6,0.8802108 0.050774,1.4409199 0.1523437,1.682129 0.1015552,0.2412123 0.3004483,0.4210624 0.59667972,0.5395507 0.21158054,0.076173 0.7236243,0.11425881 1.53613282,0.11425785 H 2.0820313 c 0.9140508,9.6e-7 1.6757688,-0.16080615 2.2851562,-0.48242185 0.6093613,-0.3216128 1.1362163,-0.8294248 1.5805664,-1.5234375 0.4443209,-0.6940068 0.8653816,-1.7180943 1.2631836,-3.0722657 z" />
    <path
       id="c"
       d="m 7.9599609,-17.608398 v 5.966796 H 7.4648438 c -0.3724124,-1.557278 -1.0664221,-2.750636 -2.0820313,-3.580078 -1.0156388,-0.829411 -2.1666793,-1.244124 -3.453125,-1.24414 -1.07488004,1.6e-5 -2.06088166,0.308935 -2.9580078,0.926757 -0.8971429,0.617854 -1.5530667,1.426121 -1.9677735,2.424805 -0.5332089,1.278007 -0.7998102,2.69988 -0.7998046,4.2656252 -5.6e-6,1.5403719 0.1946556,2.9432025 0.5839843,4.2084961 0.3893164,1.2653028 0.9986908,2.2216821 1.828125,2.8691406 0.82941828,0.6474621 1.904287,0.97119221 3.2246094,0.97119141 1.083321,8e-7 2.0756703,-0.23697811 2.9770508,-0.71093751 0.9013521,-0.4739563 1.8513837,-1.2906873 2.8500977,-2.4501953 v 1.4853516 C 6.7031089,-1.468423 5.6980643,-0.73844327 4.652832,-0.28564453 3.6075716,0.16715478 2.386707,0.39355429 0.99023438,0.39355469 -0.84636271,0.39355429 -2.4777087,0.0253906 -3.9038086,-0.7109375 -5.3299194,-1.4472642 -6.4301787,-2.5052058 -7.2045898,-3.8847656 -7.9790053,-5.2643177 -8.366212,-6.7327407 -8.3662109,-8.2900391 c -1.1e-6,-1.6419171 0.4295232,-3.1992069 1.2885742,-4.6718749 0.8590463,-1.472642 2.0185503,-2.615219 3.4785156,-3.427734 1.4599537,-0.812483 3.01089615,-1.218733 4.652832,-1.21875 1.2102748,1.7e-5 2.4882684,0.262387 3.8339844,0.787109 0.7786308,0.304704 1.2737475,0.457048 1.4853516,0.457031 0.2708173,1.7e-5 0.5056803,-0.09943 0.7045898,-0.29834 0.1988766,-0.198876 0.3279455,-0.514143 0.3872071,-0.9458 z" />
    <path
       id="i"
       d="M 4.46875,-0.46972656 V 0 h -9.0009766 v -0.46972656 h 0.5712891 c 0.4993474,4.7e-7 0.9013652,-0.0888666 1.2060547,-0.26660157 0.2200496,-0.11848872 0.3893202,-0.32161357 0.5078125,-0.60937497 0.093096,-0.2031235 0.1396455,-0.7363261 0.1396484,-1.5996094 V -14.269531 c -2.9e-6,-0.880193 -0.046552,-1.430323 -0.1396484,-1.650391 -0.093102,-0.220036 -0.2814153,-0.412581 -0.5649414,-0.577637 -0.2835306,-0.165022 -0.6665055,-0.247541 -1.1489258,-0.247558 h -0.5712891 v -0.469727 H 4.46875 v 0.469727 H 3.8974609 c -0.4993574,1.7e-5 -0.9013752,0.08888 -1.2060546,0.266601 -0.2200597,0.118506 -0.3935621,0.321631 -0.5205079,0.609375 -0.093106,0.203141 -0.1396555,0.736344 -0.1396484,1.59961 v 11.3242185 c -7.1e-6,0.8802104 0.048658,1.4303401 0.1459961,1.6503906 0.097323,0.2200532 0.2877529,0.41259856 0.5712891,0.57763674 0.2835205,0.16503962 0.6664954,0.24755907 1.1489257,0.2475586 z" />
    <path
       id="y"
       d="m 9.0898438,-17.214844 v 0.469727 c -0.5670753,0.07619 -1.0029472,0.241227 -1.3076172,0.495117 -0.4231939,0.355485 -1.091813,1.324559 -2.0058594,2.907227 l -3.7324219,6.233398 v 4.1640625 c -1.14e-5,0.8886739 0.046538,1.4409195 0.1396485,1.6567383 0.093087,0.2158214 0.2771691,0.40625086 0.552246,0.57128904 0.2750527,0.16503962 0.6411006,0.24755907 1.0981446,0.2475586 H 4.7988281 V 0 h -9.6611328 v -0.46972656 h 0.9013672 c 0.5078066,4.7e-7 0.9098244,-0.0888666 1.2060547,-0.26660157 0.2200452,-0.11848872 0.3935476,-0.32161357 0.5205078,-0.60937497 0.093092,-0.2031235 0.1396411,-0.7363261 0.1396484,-1.5996094 v -3.453125 l -4.0498047,-7.3759765 c -0.8040389,-1.455714 -1.3710956,-2.312647 -1.7011718,-2.570801 -0.3300794,-0.258121 -0.7701831,-0.391422 -1.3203125,-0.399902 v -0.469727 h 8.2519531 v 0.469727 h -0.3681641 c -0.4993565,1.7e-5 -0.8484773,0.07196 -1.0473632,0.21582 -0.1989001,0.143897 -0.2983467,0.29624 -0.2983399,0.457031 -6.8e-6,0.304704 0.3385346,1.070653 1.015625,2.297852 l 3.1103516,5.7001952 3.0976562,-5.1923832 c 0.7701676,-1.269516 1.1552583,-2.111638 1.1552735,-2.526367 -1.52e-5,-0.228499 -0.1100411,-0.418929 -0.3300782,-0.571289 -0.2877749,-0.211572 -0.8167457,-0.338525 -1.586914,-0.380859 v -0.469727 z" />
    <path
       id="o"
       d="m -0.06347656,-17.456055 c 2.74217476,-0.101545 4.97019986,0.698259 6.68408206,2.399414 1.7138487,1.701186 2.5707815,3.829764 2.5708008,6.3857426 -1.93e-5,2.1836002 -0.6390161,4.1048222 -1.9169922,5.7636718 -1.6927241,2.20052158 -4.0836722,3.30078089 -7.1728516,3.30078129 -3.0976634,-4e-7 -5.4928433,-1.04947851 -7.1855469,-3.14843749 -1.3372412,-1.6588498 -2.0058604,-3.6266212 -2.0058594,-5.9033203 -10e-7,-2.5559779 0.8696271,-4.6866729 2.6088868,-6.3920899 1.7392524,-1.705387 3.8784104,-2.507307 6.41748044,-2.405762 z m 0.15234375,0.8125 c -1.57422739,1.7e-5 -2.77181729,0.804053 -3.59277349,2.41211 -0.6686257,1.320325 -1.0029352,3.216157 -1.0029296,5.6874997 -5.6e-6,2.9368546 0.5162699,5.1077508 1.5488281,6.5126953 0.7193932,0.9817719 1.7265536,1.47265681 3.02148436,1.47265625 0.87173375,5.6e-7 1.59959764,-0.21158777 2.18359374,-0.63476565 0.7447786,-0.5416649 1.3245306,-1.4070612 1.7392578,-2.5961914 0.4146991,-1.1891226 0.6220556,-2.7400651 0.6220703,-4.652832 -1.47e-5,-2.2766822 -0.211603,-3.9799682 -0.6347656,-5.1098632 -0.4231907,-1.129868 -0.962741,-1.927556 -1.6186523,-2.393067 -0.6559363,-0.465478 -1.41130665,-0.698225 -2.26611331,-0.698242 z" />
    <path
       id="f"
       d="m -0.79980469,-16.224609 v 7.0712887 h 0.49511719 c 0.76171035,9.1e-6 1.38378,-0.1142486 1.8662109,-0.3427735 0.4824119,-0.2285059 0.8907774,-0.6135962 1.2250977,-1.1552732 0.3342988,-0.541656 0.5522348,-1.273751 0.6538086,-2.196289 h 0.4443359 v 8.6455076 H 3.4404297 C 3.2796112,-5.8356061 2.8416233,-6.9125907 2.1264648,-7.4331055 1.4112862,-7.9536053 0.60090291,-8.213859 -0.3046875,-8.2138672 h -0.49511719 v 5.2685547 c -7.14e-6,0.8802104 0.0486582,1.4303401 0.1459961,1.6503906 0.0973233,0.2200532 0.28775283,0.41259856 0.57128906,0.57763674 0.2835205,0.16503962 0.66649537,0.24755907 1.14892583,0.2475586 h 0.571289 V 0 h -9.0009766 v -0.46972656 h 0.5712891 c 0.4993473,4.7e-7 0.9013651,-0.0888666 1.2060547,-0.26660157 0.2200495,-0.11848872 0.3893202,-0.32161357 0.5078125,-0.60937497 0.093096,-0.2031235 0.1396454,-0.7363261 0.1396484,-1.5996094 V -14.269531 c -3e-6,-0.880193 -0.046552,-1.430323 -0.1396484,-1.650391 -0.093102,-0.220036 -0.2814153,-0.412581 -0.5649414,-0.577637 -0.2835307,-0.165022 -0.6665056,-0.247541 -1.1489258,-0.247558 h -0.5712891 v -0.469727 H 7.1601563 v 4.938477 H 6.6396484 c -0.118504,-1.159492 -0.4210753,-2.018541 -0.9077148,-2.577149 -0.4866668,-0.558578 -1.191256,-0.952132 -2.1137695,-1.180664 -0.5078236,-0.126937 -1.4472758,-0.190413 -2.81835941,-0.190429 z" />
    <path
       id="g"
       d="m 7.8330078,-17.608398 v 6.068359 H 7.3632813 c -0.5670742,-1.658841 -1.4176593,-2.919907 -2.5517579,-3.783203 -1.1341283,-0.863265 -2.3740359,-1.294905 -3.7197265,-1.294922 -1.28646827,1.7e-5 -2.3571052,0.361833 -3.2119141,1.085449 -0.8548248,0.723648 -1.4599675,1.732924 -1.8154297,3.027832 -0.3554745,1.294933 -0.5332087,2.623708 -0.5332031,3.9863283 -5.6e-6,1.6503975 0.1946556,3.0976617 0.5839844,4.3417969 0.3893163,1.2441435 1.0177336,2.1582051 1.8852539,2.7421875 0.867504,0.58398521 1.8979392,0.87597711 3.0913086,0.87597655 0.4147019,5.6e-7 0.8399944,-0.044433 1.2758789,-0.13330078 0.4358595,-0.0888664 0.8823108,-0.21793529 1.3393555,-0.38720707 V -4.6591797 C 3.7070174,-5.3362577 3.660468,-5.7742455 3.5673828,-5.9731445 3.4742703,-6.1720316 3.2817249,-6.3518817 2.9897461,-6.5126953 2.6977411,-6.6734959 2.3443886,-6.7538995 1.9296875,-6.7539063 H 1.4853516 v -0.4697265 h 8.3662109 v 0.4697265 c -0.6347849,0.042324 -1.0770046,0.1290757 -1.3266602,0.260254 -0.2496928,0.1311912 -0.4422382,0.3491272 -0.5776367,0.6538085 -0.07619,0.160813 -0.1142757,0.5543673 -0.1142578,1.1806641 v 3.5800781 C 6.7327306,-0.58821556 5.5880377,-0.21793598 4.3989258,0.03173828 3.2097849,0.28141248 1.9762249,0.40624959 0.69824219,0.40625 -0.93523052,0.40624959 -2.2915117,0.18408185 -3.3706055,-0.26025391 -4.4497127,-0.70458914 -5.4018602,-1.2885729 -6.2270508,-2.012207 c -0.8251983,-0.7236301 -1.4705428,-1.5382452 -1.9360351,-2.4438477 -0.5924493,-1.1679631 -0.888673,-2.475579 -0.8886719,-3.9228516 -1.1e-6,-2.5898327 0.9098288,-4.7776557 2.7294922,-6.5634767 1.8196558,-1.78579 4.1090416,-2.678693 6.86816404,-2.678711 0.85480616,1.8e-5 1.62498776,0.06773 2.31054686,0.203125 0.3723825,0.06773 0.9754093,0.260271 1.809082,0.577637 0.8336433,0.317399 1.3266441,0.476091 1.479004,0.476074 0.2369626,1.7e-5 0.4570145,-0.08674 0.6601562,-0.260254 0.2031079,-0.173486 0.3893056,-0.501447 0.5585938,-0.983886 z" />
    <path
       id="d"
       d="m -9.0517578,0 v -0.46972656 h 0.571289 c 0.4993476,4.7e-7 0.8823225,-0.0782872 1.1489258,-0.23486328 0.2665993,-0.15657466 0.4633764,-0.37027886 0.5903321,-0.64111326 0.076169,-0.1777329 0.114255,-0.7109355 0.1142578,-1.5996094 V -14.269531 c -2.8e-6,-0.880193 -0.046552,-1.430323 -0.1396485,-1.650391 -0.093101,-0.220036 -0.2814151,-0.412581 -0.5649414,-0.577637 -0.2835304,-0.165022 -0.6665053,-0.247541 -1.1489258,-0.247558 h -0.571289 v -0.469727 h 7.7060547 c 2.05663049,1.7e-5 3.7112512,0.279314 4.9638672,0.837891 1.5318865,0.685562 2.6935064,1.722345 3.4848632,3.110351 0.7913239,1.388033 1.1869941,2.958019 1.1870118,4.7099614 -1.77e-5,1.2102938 -0.194679,2.3253643 -0.5839844,3.3452148 -0.3893396,1.019861 -0.8929199,1.8619825 -1.5107422,2.5263672 C 5.577459,-2.0206686 4.8644063,-1.487466 4.0561523,-1.0854492 3.2478715,-0.68343031 2.259754,-0.37239546 1.0917969,-0.15234375 0.57551086,-0.0507812 -0.23698832,0 -1.3457031,0 Z m 6.5634765,-16.237305 v 13.4316409 c -6.9e-6,0.7109396 0.033847,1.1468116 0.1015625,1.3076172 0.067701,0.1608087 0.181959,0.2835299 0.3427735,0.3681641 0.228508,0.1269541 0.5585858,0.19043061 0.9902344,0.19042967 1.41340167,9.4e-7 2.4925022,-0.48242047 3.2373047,-1.44726567 1.0156124,-1.3033817 1.5234243,-3.3261661 1.5234375,-6.0683593 -1.32e-5,-2.2089739 -0.347018,-3.9736209 -1.0410157,-5.2939449 -0.5501417,-1.032538 -1.2568467,-1.735011 -2.12011716,-2.107422 -0.60938433,-0.262354 -1.62077654,-0.389307 -3.03417974,-0.38086 z" />
    <path
       id="w"
       d="m 12.771484,-17.214844 v 0.469727 c -0.32164,0.02541 -0.592473,0.114274 -0.8125,0.266601 -0.220076,0.15236 -0.414738,0.385108 -0.583984,0.698243 -0.05081,0.101578 -0.317407,0.757502 -0.799805,1.967773 L 5.1796875,0.39355469 H 4.6845703 L 0.41894531,-10.702148 -4.2783203,0.39355469 H -4.7480469 L -10.410156,-13.660156 c -0.575523,-1.413397 -0.977541,-2.268213 -1.206055,-2.564453 -0.228517,-0.296208 -0.613607,-0.46971 -1.155273,-0.520508 v -0.469727 h 7.4648434 v 0.469727 c -0.6009186,0.01694 -1.0008205,0.107927 -1.1997071,0.272949 -0.1988995,0.165055 -0.298346,0.370296 -0.2983398,0.615723 -6.2e-6,0.32163 0.2073504,1.002944 0.6220703,2.043945 l 3.3769531,8.3535156 2.7041016,-6.5253906 L -0.8125,-13.8125 c -0.3893347,-0.998683 -0.6897901,-1.665186 -0.9013672,-1.999512 -0.2115996,-0.334293 -0.4549262,-0.573388 -0.7299805,-0.717285 -0.2750753,-0.143863 -0.6792091,-0.215803 -1.2124023,-0.21582 v -0.469727 h 8.3408203 v 0.469727 c -0.5840015,0.0085 -1.0029464,0.05503 -1.2568359,0.139648 -0.1777506,0.05926 -0.3173989,0.158708 -0.4189453,0.29834 -0.1015784,0.139665 -0.1523596,0.298356 -0.1523438,0.476074 -1.58e-5,0.194677 0.1904137,0.791356 0.5712891,1.790039 l 3.1357422,8.150391 2.805664,-7.375977 c 0.2962013,-0.761704 0.4781673,-1.282212 0.5458985,-1.561523 0.067685,-0.279282 0.1015399,-0.53742 0.1015629,-0.774414 -2.3e-5,-0.346989 -0.1185129,-0.619938 -0.3554692,-0.818848 -0.2370016,-0.198876 -0.6898006,-0.306786 -1.3583984,-0.32373 v -0.469727 z" />
  </defs>
  <path
     d="M 3.5903113e-7,1.5e-6 V 400 H 43.849652 565.68542 V 1.5e-6 H 43.849652 Z"
     style="fill:#000000;fill-opacity:1;stroke:none;stroke-width:4;stroke-linejoin:round;paint-order:stroke fill markers"
     id="rect1055" />
  <path
     style="fill:#d40000;fill-opacity:1;fill-rule:evenodd;stroke:#808080;stroke-width:0px"
     id="path33"
     clip-path="url(#big_cir)"
     transform="matrix(0.70805185,0,0,0.71047957,43.849651,9.9999999e-7)"
     d="m 527.5,281.5 a 190,190 0 1 1 -380,0 190,190 0 1 1 380,0 z m -20,0 a 170,170 0 1 1 -340,0 170,170 0 1 1 340,0 z" />
  <path
     style="fill:#000000;stroke-width:0.999998"
     id="path35"
     d="m 281.75508,319.00532 -20.53352,19.18296 -29.73818,-10.6572 17.65448,-14.36758 0.0468,0.158 z M 382.29844,264.2984 c 0.70806,13.49912 -0.70806,25.57726 -5.66442,39.07638 l -27.61402,19.18294 6.37248,-31.2611 z m 38.94286,-71.04796 -4.24832,35.52398 -22.65768,-25.57726 2.83222,-36.23446 v 0 z M 357.51662,83.836583 c 0,0 33.27844,27.708717 33.27844,27.708717 -11.32882,-2.13144 -21.94962,-3.5524 -33.27844,0.71048 L 324.94624,89.520422 c 10.62076,-2.84192 20.5335,-4.97336 32.57038,-5.683839 z" />
  <g
     style="fill:#00839a;fill-rule:evenodd;stroke:#808080;stroke-width:0px"
     id="pentle"
     transform="matrix(0.70805185,0,0,0.71047957,43.849651,9.9999999e-7)">
    <path
       transform="matrix(2.815,0,0,2.815,-61.929999,0)"
       d="m 0,200 84.337891,-59.43164 -5.5,-6.28711 C 69.785255,129.12143 62.85167,120.07046 66.048828,105.15039 53.970675,118.29426 36.210466,114.74199 41.539062,102.30859 34.789506,103.01907 8.8319905,115.77344 0,115.77344 Z"
       style="fill:#d40000;stroke-width:0px"
       id="path106" />
    <path
       transform="matrix(2.815,0,0,2.815,-61.929999,0)"
       d="m 124.30859,0 c -21.66962,0 -31.971802,28.775391 -51.865231,28.775391 -8.31093,0 -10.656021,-5.330294 -10.300781,-11.72461 -3.197158,0.35524 -6.040207,1.776536 -7.816406,3.552735 2.841918,5.328596 11.013186,12.789062 22.380859,12.789062 14.653642,0 25.221709,-13.5 35.878909,-13.5 8.17051,0 9.94726,6.75 9.94726,6.75 14.92007,-13.143872 38.01125,-9.590114 43.33985,8.171875 l 14.20898,7.103516 c 10.07746,-1.007746 21.11732,3.292669 27.31836,11.927734 L 283.8125,0 Z"
       style="fill:#d40000;stroke-width:0px"
       id="path1062" />
    <path
       style="fill:#d40000;stroke-width:0px"
       id="horni_prava"
       d="M 395,93 C 385,66 351,61 339,61 c -89,0 -49,113 -122,113 -65,0 -74,64 -114,64 -16,0 -34,-13 -30,-34 l -19,8 v 0 c 3,6 16,37 60,37 48,0 41,-46 99,-47 102,-2 67,-129 129,-129 16,0 22,14 22,14 z" />
    <path
       style="fill:#d40000;stroke-width:0px"
       id="dolni"
       d="m 203,424 20,17 c 0,0 1,11 14,20 13,9 35,5 48,-8 22,-22 49,-43 91,-43 15,0 31,7 41,16 l -36,15 c -14,-11 -42,-4 -66,20 -26,26 -68,15 -80,8 -12,-7 -32,-20 -32,-45 z" />
    <path
       style="fill:#d40000;stroke-width:0px"
       id="leva_dolni"
       d="m 359,475 33,-6 c 3,3 11,4 18,4 25,0 36,-37 36,-80 0,-50 20,-89 56,-104 l -6,38 c -23,10 -27,46 -27,61 0,63 -37,97 -79,97 -12,0 -25,-4 -31,-10 z" />
    <path
       style="fill:#d40000;stroke-width:0px"
       id="path111"
       d="m 520,353 c 8,-5 14,-15 14,-23 0,-36 -109,-82 -83,-167 9,10 21,24 26,33 -9,43 66.50122,66.96688 68,123 0,31.53288 -29.09608,60.44001 -38,62 4,-6 12,-23 13,-28 z" />
    <path
       style="fill:#d40000;stroke-width:0px"
       id="horni"
       d="m 511,188 c 4,-8 0.64093,-18.35907 -6,-25 -9,-9 -20,-15 -45,-15 -27.82221,0 -44.66926,10 -65,10 -38.03479,0 -72,-7 -87,-36 9,-2 36,-4 47,-2 4.59133,2.89979 14,11 30,11 25,0 33,-8 65,-8 35,0 54.28557,18.72166 65,30 19,20 18,53 10,66 -3,-11 -10,-24 -14,-31 z" />
    <path
       style="fill:#d40000;stroke-width:0px"
       id="path114"
       d="m 247,417 c -17,-54 -115,-22 -115,-99 0,-27.82221 17,-67 51,-67 31,0 30,47 4,48 6,-9 3,-21 -7,-21 -10,0 -22,6 -22,38 0,50 92,12 117,117 -7,-3 -24,-13 -28,-16 z" />
    <path
       sodipodi:nodetypes="csscscc"
       style="fill:#ffffff;fill-opacity:1;stroke-width:0px"
       id="vlna_1"
       d="M -61.929999,66.184322 C -15.064309,66.184322 72,7 129,7 c 23,0 36.16957,20 36,38 -0.22316,23.687534 -21,32 -36,27 10,-4 15.74145,-34.067404 -9,-34 -36.999863,0.1008 -136.131926,65.03185 -181.929999,65.03185 z" />
    <path
       sodipodi:nodetypes="csscscc"
       style="fill:#ffffff;fill-opacity:1;stroke-width:0px"
       id="vlna_2"
       d="M -61.929999,137.66301 C -12.486411,137.66301 55,91 104,91 c 23,0 40,15 40,33 0,23 -22,29 -37,24 6,-6 8,-26 -14,-26 -35,0 -104.929999,45.35572 -154.929999,45.35572 z" />
    <path
       sodipodi:nodetypes="csscscc"
       style="fill:#ffffff;fill-opacity:1;stroke-width:0px"
       id="vlna_3"
       d="M -61.929999,206 C -24.16616,206 41,167 81,167 c 23,0 40.16957,16 40,34 -0.22316,23.68753 -22,34 -36,22 6,-4 11.741542,-28 -13,-28 -23,0 -95.314733,39 -133.929999,39 z" />
    <path
       sodipodi:nodetypes="csscscc"
       style="fill:#ffffff;fill-opacity:1;stroke-width:0px"
       id="vlna_4"
       d="M -61.929999,271.80119 C -37.658098,271.80119 33,242 59,242 c 23,0 42,14 42,38 0,19 -21,28 -36,25 10,-4 9.741542,-34 -15,-34 -18,0 -86.061093,27 -111.929999,27 z" />
    <path
       style="fill:#d40000;stroke-width:0px"
       id="path120"
       d="m 269,104 c -1,-2 -10,-12 -25,-12 -65,0 -81,68 -121,68 -16,0 -26,-8 -30,-31 l -20,10 v 0 c 4,11 24,32 58,32 48,0 51,-38 89,-39 16,-13 31,-20 49,-28 z" />
    <path
       sodipodi:nodetypes="ssssssssssssccsscccssssssssscccccccsssssssssscccssssssssssssssccccssssssscssssssccccscccssssssssss"
       transform="matrix(2.815,0,0,2.815,-61.929999,0)"
       d="m 136.5332,58.736328 c 0,-0.76243 -1.72592,1.182001 -5.1914,5.88086 -4.45725,6.043605 -4.70417,6.468041 -4.14844,7.144531 0.44688,0.543986 3.19071,1.894105 7.19531,3.542969 1.29453,0.533012 2.56143,0.975388 2.81641,0.982421 0.63579,0.01753 1.31886,-0.784001 3.87304,-4.546875 3.2591,-4.801371 3.84652,-5.896938 3.50391,-6.537109 -0.69347,-1.295766 -6.32596,-5.974771 -7.72851,-6.419922 -0.10723,-0.03403 -0.32032,0.06206 -0.32032,-0.04687 z m 10.95703,7.642578 c -0.19261,0.03754 -0.3811,0.161934 -0.63085,0.386719 -0.91893,0.827052 -6.39702,9.115047 -6.625,10.023437 -0.23586,0.939691 -0.083,1.069063 3.64257,3.087891 l 2.72071,1.476563 v 3.357422 c 0,1.951268 0.11894,3.357421 0.2832,3.357421 0.32104,0 6.33036,-7.581167 8.57226,-10.814453 l 1.48243,-2.136718 -1.41797,-1.658204 c -1.79339,-2.097232 -6.50304,-6.53278 -7.375,-6.943359 -0.26451,-0.124551 -0.45973,-0.174261 -0.65235,-0.136719 z m -23.38281,6.476563 c 0.28594,-0.23447 -0.61242,0.234285 -1.19922,0.835937 -1.16533,1.194817 -14.14803,19.725392 -14.41992,20.582032 -0.10534,0.331985 -0.11356,0.918386 -0.0176,1.300781 0.20644,0.822501 3.58048,5.933151 12.51953,18.972661 3.60526,5.25903 6.74761,10.012 6.98243,10.56054 0.39033,0.91184 0.33586,1.60455 -0.62891,8.08985 -0.84457,5.67729 -1.72269,16.27927 -2.18359,20.22851 5.67364,-5.3904 12.34474,-10.32369 21.24023,-12.39258 0.42275,-5.40344 0.77526,-14.43984 0.73047,-15.0625 l -0.0918,-1.27343 -1.4707,-0.15039 -1.4707,-0.1504 1.54296,-1.4414 c 1.78552,-1.668 1.88244,-2.17194 0.80665,-4.29492 -2.40412,-4.7443 -11.47536,-19.98708 -12.44141,-20.90625 -0.77927,-0.74145 -2.15689,-1.46208 -4.6543,-2.433598 -5.10402,-1.98552 -5.56693,-2.501983 -2.66015,-2.966796 2.10053,-0.33589 2.41128,-1.096744 1.40625,-3.4375 -0.77341,-1.80129 -1.00125,-2.90625 -0.59961,-2.90625 0.18126,0 1.24972,0.852701 2.375,1.894531 1.12964,1.045876 2.62473,2.114363 3.33789,2.386719 1.20604,0.460607 1.52819,0.460228 4.86523,0.0059 5.85703,-0.797488 6.38762,-0.967821 6.80664,-2.203125 0.1967,-0.579865 0.36577,-2.113674 0.375,-3.408203 l 0.0156,-2.353516 -3.97071,-1.986328 c -4.30105,-2.15158 -14.44963,-6.684445 -16.29101,-7.277344 -0.41471,-0.133529 -1.07586,-0.07221 -0.9043,-0.21289 z m 34.45313,3.742187 c -0.41326,0.0029 -1.45315,1.298076 -8.48633,10.587891 -5.84586,7.721552 -6.70916,8.982633 -6.71094,9.779293 -0.001,0.53906 1.84472,1.58749 5.88281,3.34375 1.21362,0.52784 2.40995,0.96971 2.65821,0.98047 0.52601,0.0228 2.13101,-1.60519 6.79882,-6.894529 4.77032,-5.405495 8.19532,-9.548968 8.19532,-9.914062 0,-0.787272 -7.5114,-7.888639 -8.33789,-7.882813 z m 10.29297,9.705078 c -0.44678,0 -4.01264,3.651237 -9.05079,9.267578 -5.04474,5.623698 -5.55468,6.257588 -5.55468,6.898438 0,0.29005 1.12668,1.68466 2.5039,3.09961 1.77956,1.82828 2.60814,2.49451 2.86719,2.29883 3.24918,-2.45448 11.73319,-9.539 13.96094,-11.65821 l 1.82812,-1.74023 -0.47265,-0.919922 c -0.66479,-1.293885 -5.65915,-7.246094 -6.08203,-7.246094 z m -25.63477,4.728516 c -0.82985,-0.0206 -2.28236,0.171892 -4.58789,0.59375 -2.47614,0.453094 -3.95462,0.569287 -5.61914,0.4375 -2.34143,-0.185378 -2.972,0.05331 -2.29492,0.869141 0.19326,0.232866 0.767,0.546693 1.27539,0.697265 0.50838,0.150569 2.4477,0.81309 4.30859,1.472656 1.86089,0.659567 3.59639,1.199398 3.85742,1.201168 1.00094,0.007 4.37662,-4.289031 3.9336,-5.005855 -0.10107,-0.163536 -0.37514,-0.253264 -0.87305,-0.265625 z m -5.15234,6.85937 c -0.23876,0.0144 -0.42123,0.0585 -0.54102,0.13672 -0.54169,0.35387 -0.0431,1.29185 7.37109,13.81641 7.61153,12.85786 7.57767,12.79642 7.58204,13.10156 0.002,0.13624 -0.68673,0.20377 -1.53125,0.14844 l -1.53711,-0.10156 -0.2168,1.26758 c -0.17572,1.02741 -0.61203,9.54965 -1.04883,14.40429 2.32458,-0.42719 4.78765,-0.67187 7.42578,-0.67187 1.41394,0 2.85008,0.18496 4.26758,0.50195 v -11.33789 l 1.4375,-1.65234 c 1.97098,-2.26555 4.03912,-5.27202 4.7793,-6.94532 1.35013,-3.0522 3.52931,-12.05714 3.96289,-16.38086 0.15992,-1.59477 0.11702,-1.98661 -0.21094,-1.98242 -0.22461,0.003 -1.46719,0.77407 -2.76172,1.71289 -1.29453,0.93883 -3.39298,2.45971 -4.66406,3.37891 -3.27155,2.36586 -3.38158,2.34464 -7.11524,-1.2832 -2.81323,-2.73351 -3.30793,-3.08058 -6.6621,-4.67774 -4.46823,-2.12763 -8.86579,-3.53604 -10.53711,-3.43555 z"
       style="fill:#ffffff;fill-opacity:1;stroke-width:0px"
       id="path1081" />
  </g>
</svg>
